<svg width="278" height="282" viewBox="0 0 278 282" fill="none" xmlns="http://www.w3.org/2000/svg">
<g clip-path="url(#clip0_24_755)">
<mask id="mask0_24_755" style="mask-type:luminance" maskUnits="userSpaceOnUse" x="157" y="23" width="101" height="97">
<path d="M168.868 23.5823L257.913 35.4426L246.734 119.368L157.689 107.508L168.868 23.5823Z" fill="white"/>
</mask>
<g mask="url(#mask0_24_755)">
<path d="M248.676 84.5068C246.009 82.8879 242.298 80.3575 238.272 77.5094L238.831 73.3121C238.949 72.4293 238.341 71.6179 237.475 71.5026L237.459 71.5005C236.596 71.3855 235.794 72.0091 235.676 72.8919L235.342 75.401C231.527 72.6572 227.599 69.7615 224.161 67.1915L224.693 63.2033C224.81 62.3205 224.202 61.5091 223.336 61.3937L223.321 61.3917C222.457 61.2767 221.655 61.9003 221.538 62.7831L221.244 64.9927C216.793 61.6493 213.676 59.2559 213.647 59.2363L216.125 40.6375C216.527 37.6199 216.288 35.0476 215.829 32.9952C215.67 32.2883 215.358 31.4875 215.012 30.7268C214.378 29.3182 212.501 29.0682 211.533 30.2791C211.032 30.8955 210.538 31.5758 210.217 32.2003C209.239 34.0484 208.331 36.481 207.923 39.5451L205.443 58.1593C205.413 58.1711 201.779 59.6627 196.593 61.7251L196.887 59.5129C197.005 58.6326 196.397 57.8213 195.53 57.7059L195.515 57.7039C194.649 57.5885 193.85 58.2124 193.733 59.0927L193.201 63.0835C189.198 64.6626 184.661 66.4306 180.261 68.0803L180.596 65.5686C180.713 64.6884 180.105 63.877 179.239 63.7616L179.224 63.7596C178.358 63.6442 177.558 64.2682 177.441 65.1484L176.882 69.3483C172.266 71.0454 168.007 72.5141 165.026 73.3651C164.048 73.6446 162.141 75.0772 162.384 76.0685C162.567 76.8075 164.5 76.868 165.245 76.7701C172.572 75.8125 186.843 73.9433 194.12 74.0009C196.388 74.014 203.188 75.2087 203.219 75.2128C203.219 75.2128 201.048 102.824 201.109 103.607L189.849 108.205C188.807 108.629 188.031 109.529 187.736 110.617C190.375 110.542 198.737 110.316 201.745 110.263C201.791 110.602 201.82 110.927 201.869 111.235C201.936 111.746 201.932 112.218 201.958 112.587C201.984 112.956 202.071 113.193 202.32 113.226C202.571 113.26 202.705 113.036 202.841 112.689C202.963 112.34 203.085 111.87 203.281 111.41C203.407 111.122 203.54 110.804 203.674 110.472C206.277 111.216 214.03 113.662 216.839 114.538C216.782 113.511 216.297 112.55 215.49 111.894L205.99 104.289C206.256 103.534 211.407 76.2877 211.407 76.2877C211.45 76.2935 218.311 76.9183 220.503 77.4993C227.544 79.3487 240.826 84.9036 247.649 87.7302C248.342 88.0195 250.222 88.4669 250.595 87.802C251.013 86.9145 249.532 85.0306 248.676 84.5068Z" fill="black"/>
</g>
<path d="M36.2559 240.454C35.1376 240.562 34.5177 240.616 34.5177 240.616C34.1094 240.654 33.8086 241.011 33.8439 241.425C33.8718 241.778 34.1472 242.059 34.485 242.104C34.5282 242.11 34.5866 242.118 34.6319 242.108C34.6623 242.112 35.2822 242.058 36.4178 241.936C36.8261 241.899 37.1134 241.527 37.081 241.11C37.0158 240.707 36.6642 240.416 36.2559 240.454Z" fill="black"/>
<path d="M43.2271 239.588C43.0287 239.622 42.832 239.643 42.6484 239.663C42.2384 239.714 41.9642 240.103 42.0139 240.506C42.0591 240.846 42.3213 241.109 42.6439 241.152C42.7024 241.16 42.7781 241.154 42.8382 241.149C43.0375 241.129 43.2206 241.093 43.419 241.059C43.8294 241.006 44.1061 240.617 44.0535 240.216C44.0038 239.812 43.6392 239.522 43.2271 239.588Z" fill="black"/>
<path d="M39.7452 240.052C39.5488 240.07 39.35 240.107 39.1664 240.127C38.7589 240.178 38.4687 240.552 38.5192 240.968C38.5599 241.323 38.8246 241.587 39.1472 241.63C39.2056 241.638 39.2661 241.63 39.3266 241.622C39.5229 241.604 39.7066 241.583 39.918 241.549C40.328 241.498 40.6179 241.127 40.5677 240.708C40.5198 240.292 40.1552 240.001 39.7452 240.052Z" fill="black"/>
<path d="M62.8542 235.952C61.7283 236.215 60.5748 236.471 59.4081 236.71C59.0092 236.793 58.7457 237.199 58.828 237.591C58.8905 237.918 59.1433 238.135 59.4532 238.176C59.5268 238.186 59.6153 238.182 59.6927 238.164C60.8618 237.907 62.0153 237.651 63.1561 237.393C63.557 237.294 63.8032 236.901 63.7231 236.494C63.6425 236.089 63.2551 235.853 62.8542 235.952Z" fill="black"/>
<path d="M122.98 205.63C122.672 205.361 122.206 205.388 121.941 205.705C121.181 206.576 120.379 207.457 119.563 208.307C119.285 208.604 119.282 209.076 119.571 209.372C119.689 209.493 119.83 209.559 119.99 209.58C120.211 209.61 120.444 209.533 120.617 209.359C121.45 208.482 122.272 207.588 123.046 206.703C123.315 206.374 123.288 205.897 122.98 205.63Z" fill="black"/>
<path d="M112.214 215.052C111.312 215.767 110.367 216.464 109.396 217.154C109.063 217.399 108.973 217.86 109.211 218.193C109.336 218.378 109.517 218.478 109.722 218.506C109.898 218.529 110.083 218.493 110.246 218.378C111.237 217.675 112.215 216.951 113.134 216.223C113.45 215.963 113.512 215.498 113.273 215.177C113.001 214.852 112.529 214.805 112.214 215.052Z" fill="black"/>
<path d="M114.904 212.794C114.752 212.926 114.615 213.06 114.465 213.176C114.159 213.456 114.11 213.92 114.384 214.23C114.513 214.386 114.665 214.467 114.841 214.49C115.046 214.518 115.249 214.453 115.418 214.307C115.57 214.175 115.722 214.045 115.874 213.913C116.18 213.633 116.214 213.168 115.94 212.858C115.684 212.548 115.21 212.516 114.904 212.794Z" fill="black"/>
<path d="M125.118 151.906C125.356 151.573 125.273 151.089 124.929 150.861C124.766 150.748 124.587 150.632 124.424 150.521C124.079 150.291 123.618 150.398 123.406 150.75C123.181 151.099 123.283 151.57 123.627 151.784C123.777 151.88 123.943 151.991 124.091 152.103C124.188 152.176 124.3 152.223 124.417 152.238C124.668 152.256 124.95 152.157 125.118 151.906Z" fill="black"/>
<path d="M49.6146 238.6C48.4538 238.795 47.2929 238.989 46.1342 239.169C45.737 239.239 45.4472 239.611 45.5129 240.029C45.5556 240.368 45.8224 240.617 46.145 240.66C46.2186 240.67 46.2788 240.664 46.3545 240.659C47.5133 240.48 48.6897 240.284 49.8505 240.089C50.2473 240.021 50.5215 239.632 50.4565 239.227C50.3954 238.793 50.0117 238.529 49.6146 238.6Z" fill="black"/>
<path d="M133.774 189.277C133.846 189.089 133.915 188.899 133.984 188.711C134.127 188.32 133.93 187.897 133.545 187.757C133.161 187.614 132.746 187.816 132.603 188.209C132.534 188.397 132.465 188.569 132.396 188.76C132.253 189.151 132.448 189.586 132.82 189.728C132.876 189.751 132.935 189.759 132.978 189.765C133.316 189.81 133.655 189.611 133.774 189.277Z" fill="black"/>
<path d="M125.233 202.844C124.908 202.587 124.455 202.632 124.201 202.964C124.077 203.115 123.952 203.264 123.841 203.433C123.59 203.749 123.63 204.225 123.938 204.494C124.045 204.585 124.173 204.633 124.305 204.651C124.556 204.684 124.806 204.594 124.97 204.374C125.093 204.223 125.221 204.058 125.345 203.907C125.598 203.575 125.557 203.113 125.233 202.844Z" fill="black"/>
<path d="M132.263 191.099C131.898 190.926 131.456 191.096 131.288 191.47C131.205 191.641 131.121 191.827 131.039 192C130.87 192.371 131.018 192.816 131.383 193.002C131.45 193.042 131.524 193.052 131.598 193.062C131.908 193.103 132.228 192.933 132.358 192.63C132.443 192.444 132.527 192.258 132.611 192.072C132.793 191.716 132.628 191.268 132.263 191.099Z" fill="black"/>
<path d="M56.5352 237.317L55.9532 237.437C55.5517 237.52 55.2903 237.911 55.3708 238.316C55.433 238.645 55.6866 238.875 55.994 238.916C56.0676 238.926 56.156 238.922 56.2335 238.904L56.8181 238.784C57.2173 238.698 57.4788 238.307 57.3983 237.903C57.3181 237.495 56.9345 237.231 56.5352 237.317Z" fill="black"/>
<path d="M106.965 218.808C106.802 218.908 106.637 219.022 106.474 219.121C106.13 219.351 106.025 219.808 106.248 220.158C106.371 220.356 106.562 220.473 106.768 220.5C106.931 220.522 107.114 220.486 107.26 220.398C107.425 220.283 107.601 220.186 107.766 220.071C108.112 219.841 108.217 219.385 107.995 219.035C107.772 218.687 107.308 218.581 106.965 218.808Z" fill="black"/>
<path d="M88.6609 228.077C87.5916 228.497 86.4872 228.928 85.3722 229.341C84.993 229.491 84.7887 229.918 84.9314 230.302C85.0295 230.575 85.2585 230.758 85.5226 230.793C85.6395 230.809 85.7604 230.793 85.8725 230.748C86.9875 230.334 88.1046 229.905 89.1937 229.472C89.57 229.325 89.764 228.878 89.6213 228.494C89.4633 228.108 89.0397 227.93 88.6609 228.077Z" fill="black"/>
<path d="M91.9164 226.732C91.7422 226.817 91.5527 226.881 91.3786 226.965C90.9977 227.127 90.821 227.561 90.9793 227.944C91.0794 228.202 91.3105 228.37 91.5594 228.403C91.6788 228.419 91.8121 228.407 91.9415 228.348C92.1308 228.266 92.3054 228.197 92.4945 228.117C92.8754 227.955 93.052 227.522 92.8941 227.135C92.7209 226.747 92.2973 226.57 91.9164 226.732Z" fill="black"/>
<path d="M82.6116 230.329C82.4247 230.394 82.2374 230.461 82.0648 230.514C81.6753 230.643 81.4682 231.073 81.5936 231.471C81.6899 231.757 81.9214 231.94 82.1983 231.977C82.3025 231.991 82.4234 231.975 82.5309 231.945C82.7207 231.878 82.908 231.811 83.095 231.747C83.4873 231.615 83.6941 231.188 83.551 230.788C83.4082 230.404 82.9888 230.196 82.6116 230.329Z" fill="black"/>
<path d="M75.9027 232.507C74.7951 232.845 73.6469 233.178 72.5152 233.485C72.1277 233.599 71.8947 234.009 72.0049 234.405C72.0839 234.704 72.3261 234.905 72.6207 234.944C72.7096 234.956 72.8133 234.954 72.9084 234.919C74.0545 234.602 75.2053 234.269 76.3103 233.93C76.6981 233.813 76.9205 233.386 76.8074 232.993C76.7079 232.614 76.3078 232.377 75.9027 232.507Z" fill="black"/>
<path d="M79.2671 231.45C79.0801 231.514 78.8949 231.566 78.7051 231.632C78.3152 231.764 78.0952 232.174 78.2232 232.572C78.3043 232.856 78.5464 233.056 78.8258 233.093C78.9274 233.107 79.0337 233.105 79.1432 233.059C79.3305 232.992 79.5182 232.941 79.7052 232.877C80.095 232.745 80.3154 232.333 80.1896 231.938C80.0769 231.542 79.6595 231.318 79.2671 231.45Z" fill="black"/>
<path d="M95.1408 225.291C94.9641 225.375 94.7903 225.457 94.5984 225.539C94.2353 225.704 94.0544 226.15 94.2276 226.538C94.3297 226.78 94.5608 226.948 94.797 226.979C94.9291 226.997 95.0653 226.983 95.1921 226.924C95.3659 226.842 95.5578 226.76 95.7316 226.678C96.0993 226.498 96.2629 226.066 96.105 225.68C95.947 225.293 95.5065 225.127 95.1408 225.291Z" fill="black"/>
<path d="M121.332 150.519C121.655 150.562 121.977 150.376 122.109 150.06C122.267 149.671 122.085 149.235 121.717 149.081C120.571 148.607 119.378 148.267 118.18 148.06C117.768 148.006 117.404 148.278 117.335 148.678C117.267 149.095 117.545 149.468 117.94 149.534C119.035 149.711 120.113 150.023 121.147 150.45C121.202 150.486 121.274 150.511 121.332 150.519Z" fill="black"/>
<path d="M115.855 148.589C115.85 148.178 115.505 147.843 115.099 147.865C114.892 147.867 114.693 147.885 114.485 147.889C114.079 147.911 113.774 148.28 113.794 148.693C113.82 149.061 114.098 149.343 114.433 149.387C114.479 149.393 114.537 149.401 114.582 149.391C114.762 149.386 114.961 149.366 115.14 149.36C115.544 149.354 115.875 149.001 115.855 148.589Z" fill="black"/>
<path d="M103.986 220.66C103.822 220.762 103.644 220.859 103.483 220.959C103.127 221.171 103.004 221.625 103.212 221.987C103.331 222.202 103.538 222.335 103.759 222.364C103.919 222.385 104.072 222.361 104.218 222.273C104.397 222.176 104.557 222.076 104.736 221.977C105.092 221.767 105.212 221.312 105.007 220.949C104.789 220.57 104.327 220.448 103.986 220.66Z" fill="black"/>
<path d="M100.916 222.395C99.9021 222.946 98.8602 223.49 97.7895 224.018C97.4217 224.197 97.2713 224.647 97.4465 225.02C97.566 225.249 97.7683 225.399 98.0198 225.433C98.1493 225.45 98.3028 225.423 98.4296 225.364C99.502 224.824 100.577 224.281 101.606 223.719C101.96 223.525 102.111 223.072 101.921 222.713C101.715 222.336 101.271 222.201 100.916 222.395Z" fill="black"/>
<path d="M66.2776 235.131C66.0924 235.183 65.894 235.217 65.7087 235.269C65.3078 235.367 65.057 235.775 65.1544 236.169C65.2317 236.482 65.4718 236.698 65.7817 236.739C65.8681 236.75 65.9591 236.747 66.0521 236.728C66.2373 236.676 66.4374 236.629 66.621 236.591C67.0245 236.492 67.2571 236.084 67.1597 235.69C67.0795 235.283 66.6811 235.033 66.2776 235.131Z" fill="black"/>
<path d="M69.6943 234.265L69.1212 234.415C68.7202 234.514 68.4872 234.924 68.5826 235.333C68.6616 235.633 68.9021 235.846 69.1942 235.885C69.2831 235.897 69.374 235.893 69.4815 235.863L70.055 235.711C70.4559 235.612 70.6889 235.201 70.5805 234.793C70.483 234.399 70.0821 234.149 69.6943 234.265Z" fill="black"/>
<path d="M112.346 148.928C112.251 148.519 111.85 148.268 111.464 148.369C111.263 148.419 111.061 148.481 110.859 148.546C110.468 148.662 110.249 149.087 110.359 149.483C110.44 149.767 110.682 149.967 110.962 150.005C111.066 150.018 111.17 150.017 111.279 149.971C111.452 149.917 111.624 149.864 111.807 149.828C112.193 149.727 112.441 149.319 112.346 148.928Z" fill="black"/>
<path d="M53.0734 237.981C52.8725 238.014 52.6893 238.051 52.4909 238.085C52.0937 238.155 51.8171 238.544 51.8955 238.964C51.958 239.29 52.2071 239.536 52.5169 239.578C52.5906 239.587 52.6634 239.584 52.7392 239.578C52.9376 239.544 53.1233 239.509 53.3221 239.472C53.7189 239.404 53.9956 239.015 53.9171 238.595C53.8666 238.178 53.4876 237.899 53.0734 237.981Z" fill="black"/>
<path d="M103.42 156.511C103.505 156.554 103.577 156.577 103.663 156.588C103.958 156.627 104.263 156.471 104.42 156.187C104.502 156.017 104.6 155.846 104.695 155.693C104.89 155.338 104.774 154.868 104.428 154.67C104.08 154.471 103.617 154.591 103.419 154.945C103.32 155.129 103.221 155.313 103.123 155.5C102.909 155.865 103.057 156.326 103.42 156.511Z" fill="black"/>
<path d="M132.99 165.239C133.055 165.432 133.104 165.604 133.169 165.796C133.265 166.082 133.492 166.281 133.772 166.318C133.873 166.331 133.982 166.314 134.089 166.284C134.481 166.152 134.699 165.74 134.573 165.345C134.509 165.152 134.446 164.963 134.383 164.757C134.257 164.36 133.835 164.151 133.446 164.28C133.067 164.43 132.862 164.857 132.99 165.239Z" fill="black"/>
<path d="M102.381 159.946C102.396 159.948 102.424 159.951 102.44 159.954C102.821 160.004 103.183 159.748 103.265 159.365C103.304 159.186 103.343 158.994 103.397 158.82C103.509 158.425 103.264 158.012 102.876 157.899C102.488 157.787 102.082 158.035 101.97 158.433C101.912 158.638 101.871 158.845 101.828 159.052C101.731 159.449 101.991 159.849 102.381 159.946Z" fill="black"/>
<path d="M125.964 200.613C125.724 200.946 125.796 201.413 126.121 201.669C126.23 201.744 126.343 201.788 126.462 201.804C126.727 201.839 126.993 201.738 127.159 201.503C127.272 201.334 127.397 201.169 127.51 201.003C127.748 200.67 127.676 200.203 127.334 199.96C127.009 199.72 126.549 199.795 126.309 200.142C126.185 200.293 126.074 200.447 125.964 200.613Z" fill="black"/>
<path d="M131.964 162.517C132.066 162.759 132.297 162.927 132.546 162.96C132.678 162.978 132.814 162.967 132.941 162.908C133.322 162.745 133.485 162.294 133.325 161.924C133.248 161.732 133.168 161.553 133.088 161.361C132.913 160.986 132.487 160.824 132.109 160.987C131.741 161.166 131.577 161.599 131.735 161.985C131.817 162.164 131.882 162.341 131.964 162.517Z" fill="black"/>
<path d="M105.262 153.457C105.382 153.565 105.51 153.611 105.655 153.63C105.891 153.661 106.141 153.574 106.301 153.382C107.06 152.511 107.905 151.757 108.807 151.162C109.15 150.935 109.242 150.474 109.019 150.127C108.797 149.777 108.347 149.685 108.003 149.915C106.986 150.584 106.04 151.417 105.193 152.399C104.929 152.698 104.971 153.176 105.262 153.457Z" fill="black"/>
<path d="M133.928 168.619C134.033 169.074 134.131 169.558 134.221 170.011C134.354 170.696 134.457 171.38 134.545 172.061C134.59 172.401 134.852 172.665 135.175 172.708C135.233 172.715 135.294 172.708 135.37 172.702C135.78 172.651 136.054 172.278 136.007 171.859C135.92 171.149 135.808 170.42 135.679 169.719C135.593 169.235 135.48 168.75 135.379 168.263C135.283 167.856 134.9 167.608 134.497 167.707C134.079 167.817 133.846 168.227 133.928 168.619Z" fill="black"/>
<path d="M135.113 181.366C134.718 181.298 134.323 181.566 134.255 181.982C134.058 183.112 133.801 184.263 133.484 185.405C133.371 185.803 133.601 186.212 133.989 186.326C134.017 186.33 134.063 186.336 134.091 186.34C134.444 186.387 134.802 186.159 134.895 185.793C135.219 184.604 135.497 183.409 135.699 182.219C135.784 181.821 135.507 181.434 135.113 181.366Z" fill="black"/>
<path d="M126.27 153.914C126.401 154.052 126.547 154.18 126.679 154.318C126.797 154.439 126.953 154.507 127.098 154.526C127.319 154.556 127.554 154.479 127.725 154.321C128.018 154.026 128.021 153.554 127.733 153.258C127.586 153.115 127.441 152.959 127.297 152.819C127.007 152.536 126.542 152.55 126.249 152.847C125.967 153.159 125.979 153.631 126.27 153.914Z" fill="black"/>
<path d="M135.469 174.207C135.063 174.227 134.749 174.566 134.754 174.976C134.758 175.177 134.76 175.374 134.767 175.556C134.775 175.938 135.049 176.232 135.402 176.279C135.43 176.283 135.476 176.289 135.506 176.28C135.91 176.273 136.239 175.936 136.236 175.51C136.232 175.313 136.231 175.1 136.227 174.899C136.218 174.52 135.889 174.2 135.469 174.207Z" fill="black"/>
<path d="M134.688 178.496C134.678 178.692 134.652 178.888 134.641 179.083C134.6 179.488 134.881 179.846 135.277 179.898C135.292 179.9 135.292 179.9 135.307 179.903C135.706 179.94 136.074 179.639 136.115 179.219C136.127 179.008 136.153 178.815 136.168 178.601C136.192 178.194 135.895 177.837 135.482 177.795C135.069 177.772 134.713 178.074 134.688 178.496Z" fill="black"/>
<path d="M130.423 159.393C130.545 159.607 130.751 159.726 130.972 159.755C131.135 159.777 131.285 159.752 131.432 159.664C131.788 159.454 131.911 158.998 131.703 158.636C131.088 157.551 130.418 156.519 129.707 155.573C129.468 155.252 128.998 155.189 128.681 155.436C128.363 155.683 128.3 156.16 128.541 156.481C129.211 157.393 129.845 158.357 130.423 159.393Z" fill="black"/>
<path d="M129.715 194.637C129.165 195.643 128.563 196.672 127.937 197.684C127.712 198.032 127.812 198.503 128.156 198.717C128.254 198.775 128.352 198.819 128.456 198.833C128.735 198.87 129.021 198.74 129.174 198.487C129.819 197.449 130.439 196.388 131.008 195.356C131.207 194.985 131.074 194.529 130.726 194.346C130.367 194.13 129.915 194.267 129.715 194.637Z" fill="black"/>
<path d="M101.939 164.159C102.037 164.432 102.266 164.615 102.53 164.65C102.634 164.664 102.755 164.648 102.863 164.618C103.24 164.484 103.445 164.073 103.332 163.677C103.175 163.17 103.082 162.64 103.037 162.085C103.002 161.67 102.655 161.367 102.246 161.404C102.095 161.413 101.953 161.47 101.838 161.563C101.688 161.556 101.548 161.6 101.418 161.688C101.072 161.915 100.98 162.389 101.205 162.724C101.517 163.175 101.767 163.665 101.939 164.159Z" fill="black"/>
<path d="M96.1305 158.78C96.2999 158.847 96.469 158.917 96.6389 159C96.7108 159.022 96.7672 159.046 96.8408 159.055C97.1482 159.096 97.4681 158.926 97.6159 158.612C97.7847 158.238 97.6194 157.79 97.239 157.619C97.0564 157.534 96.8738 157.449 96.6742 157.375C96.2917 157.219 95.8638 157.404 95.7083 157.796C95.5657 158.187 95.7483 158.621 96.1305 158.78Z" fill="black"/>
<path d="M98.9939 160.377C99.1419 160.489 99.2776 160.596 99.426 160.724C99.5329 160.814 99.6612 160.86 99.7933 160.878C100.042 160.911 100.292 160.823 100.456 160.601C100.722 160.287 100.667 159.809 100.359 159.54C100.198 159.413 100.034 159.284 99.8725 159.157C99.5456 158.914 99.09 158.977 98.8368 159.306C98.5965 159.654 98.6667 160.137 98.9939 160.377Z" fill="black"/>
<path d="M78.788 181.344C78.7533 181.158 78.7033 180.97 78.669 180.781C78.5885 180.376 78.2074 180.113 77.8059 180.196C77.4071 180.28 77.1456 180.67 77.2261 181.075C77.2584 181.279 77.3083 181.467 77.341 181.668C77.4052 181.982 77.6589 182.213 77.9662 182.253C78.0551 182.265 78.1283 182.259 78.221 182.243C78.6219 182.144 78.8834 181.753 78.788 181.344Z" fill="black"/>
<path d="M79.2519 185.604C79.6418 185.472 79.8333 185.043 79.7079 184.645C79.641 184.468 79.5936 184.28 79.5267 184.103C79.401 183.708 78.979 183.5 78.5895 183.629C78.1971 183.761 77.9928 184.188 78.1182 184.586C78.1834 184.776 78.2457 184.968 78.3109 185.158C78.4089 185.431 78.6379 185.614 78.9021 185.649C79.0189 185.665 79.1424 185.649 79.2519 185.604Z" fill="black"/>
<path d="M83.7448 160.627C83.9353 160.652 84.1358 160.602 84.3005 160.472C84.4505 160.355 84.5857 160.253 84.7357 160.136C85.0656 159.891 85.1427 159.428 84.9028 159.094C84.6633 158.757 84.2107 158.681 83.8808 158.926C83.7156 159.041 83.5483 159.171 83.3963 159.303C83.0795 159.566 83.018 160.028 83.2723 160.351C83.3865 160.503 83.5518 160.601 83.7448 160.627Z" fill="black"/>
<path d="M79.462 165.531C79.5471 165.571 79.6314 165.598 79.7203 165.61C80.0124 165.649 80.3159 165.506 80.4723 165.224C81.0119 164.201 81.6457 163.266 82.3386 162.431C82.6053 162.117 82.5627 161.641 82.2548 161.371C81.9469 161.102 81.4781 161.147 81.214 161.461C80.4484 162.376 79.7726 163.413 79.1781 164.519C78.9682 164.872 79.101 165.331 79.462 165.531Z" fill="black"/>
<path d="M88.0597 157.597C87.917 157.213 87.4972 157.007 87.1183 157.154C86.9314 157.218 86.7395 157.3 86.5501 157.383C86.1692 157.545 85.9929 157.976 86.1508 158.362C86.2509 158.62 86.482 158.787 86.7309 158.82C86.863 158.838 86.9865 158.823 87.1133 158.763C87.2723 158.695 87.4444 158.626 87.619 158.557C87.9932 158.426 88.1852 157.994 88.0597 157.597Z" fill="black"/>
<path d="M77.4271 173.743C77.025 173.734 76.6805 174.069 76.6726 174.478C76.6455 175.691 76.6921 176.913 76.8049 178.084C76.8329 178.438 77.1082 178.719 77.4308 178.762C77.4893 178.769 77.5477 178.777 77.5929 178.767C78.0012 178.73 78.2911 178.359 78.2558 177.944C78.1523 176.819 78.1127 175.66 78.1319 174.507C78.1554 174.098 77.8292 173.752 77.4271 173.743Z" fill="black"/>
<path d="M79.7887 186.952C79.4209 187.131 79.2578 187.58 79.433 187.953C79.9296 189.038 80.4886 190.101 81.1145 191.127C81.2378 191.327 81.4318 191.443 81.6503 191.472C81.8129 191.493 81.9808 191.455 82.1266 191.37C82.4705 191.155 82.5926 190.685 82.37 190.338C81.784 189.361 81.2338 188.329 80.7722 187.311C80.599 186.923 80.1564 186.772 79.7887 186.952Z" fill="black"/>
<path d="M90.0647 157.895C90.1231 157.903 90.1861 157.896 90.2593 157.89C91.1122 157.775 92.0353 157.793 92.9751 157.918C93.1504 157.941 93.3257 157.965 93.5014 158.004C93.9083 158.074 94.2881 157.804 94.359 157.388C94.4279 156.987 94.1683 156.587 93.7589 156.517C93.5552 156.474 93.3647 156.449 93.1742 156.423C92.1023 156.281 91.0727 156.267 90.0864 156.393C89.6764 156.443 89.3888 156.818 89.4367 157.234C89.4778 157.604 89.7421 157.852 90.0647 157.895Z" fill="black"/>
<path d="M78.216 168.83C78.2571 168.852 78.3028 168.858 78.346 168.864C78.6991 168.911 79.0401 168.699 79.1463 168.347C79.2009 168.171 79.2698 167.983 79.3218 167.806C79.4644 167.415 79.267 166.995 78.8828 166.852C78.4986 166.709 78.0835 166.913 77.941 167.304C77.872 167.492 77.8158 167.682 77.7447 167.885C77.6171 168.28 77.8297 168.703 78.216 168.83Z" fill="black"/>
<path d="M91.127 200.032C90.2214 199.32 89.3355 198.577 88.5114 197.816C88.2055 197.531 87.7388 197.561 87.4721 197.874C87.1927 198.187 87.2201 198.661 87.5254 198.93C88.3755 199.729 89.2885 200.502 90.2349 201.237C90.3443 201.328 90.4574 201.372 90.5895 201.39C90.8384 201.423 91.1052 201.322 91.2689 201.102C91.5093 200.753 91.454 200.275 91.127 200.032Z" fill="black"/>
<path d="M77.5447 172.298C77.9562 172.353 78.3224 172.068 78.3913 171.667C78.4171 171.474 78.4539 171.295 78.4797 171.101C78.5485 170.701 78.289 170.301 77.8796 170.231C77.4874 170.147 77.0929 170.431 77.022 170.847C76.9809 171.038 76.9531 171.247 76.9273 171.441C76.8564 171.857 77.1332 172.243 77.5447 172.298Z" fill="black"/>
<path d="M98.3681 205.544C98.1844 205.914 98.3345 206.359 98.6973 206.547C99.7324 207.063 100.817 207.557 101.905 208.023C101.962 208.046 102.033 208.071 102.092 208.079C102.414 208.122 102.739 207.936 102.869 207.618C103.027 207.229 102.86 206.797 102.478 206.638C101.417 206.195 100.379 205.704 99.3563 205.19C98.9914 205.018 98.5369 205.17 98.3681 205.544Z" fill="black"/>
<path d="M171.356 193.689C171.08 193.395 170.604 193.376 170.311 193.673C170.175 193.805 170.038 193.939 169.901 194.073C169.608 194.355 169.59 194.838 169.864 195.132C169.98 195.271 170.136 195.337 170.312 195.36C170.517 195.387 170.748 195.326 170.919 195.168C171.056 195.033 171.208 194.901 171.349 194.752C171.626 194.455 171.645 193.988 171.356 193.689Z" fill="black"/>
<path d="M186.676 171.599C186.313 171.414 185.874 171.568 185.69 171.94C185.607 172.111 185.51 172.282 185.426 172.468C185.242 172.837 185.377 173.281 185.74 173.482C185.823 173.524 185.894 173.549 185.983 173.561C186.275 173.6 186.596 173.443 186.737 173.16C186.82 172.987 186.919 172.803 187.001 172.63C187.177 172.228 187.039 171.784 186.676 171.599Z" fill="black"/>
<path d="M183.354 177.832C183.007 177.618 182.544 177.74 182.347 178.092C181.749 179.108 181.138 180.106 180.518 181.072C180.29 181.423 180.393 181.893 180.722 182.103C180.82 182.163 180.918 182.205 181.022 182.219C181.301 182.256 181.57 182.14 181.738 181.889C182.375 180.91 182.988 179.896 183.603 178.869C183.815 178.5 183.697 178.046 183.354 177.832Z" fill="black"/>
<path d="M185.063 174.744C184.702 174.544 184.249 174.683 184.067 175.037C183.972 175.208 183.887 175.378 183.792 175.55C183.593 175.917 183.711 176.374 184.072 176.575C184.157 176.615 184.244 176.642 184.33 176.654C184.625 176.693 184.928 176.552 185.069 176.266C185.167 176.098 185.265 175.927 185.349 175.741C185.557 175.404 185.424 174.945 185.063 174.744Z" fill="black"/>
<path d="M191.927 159.099C191.542 158.959 191.125 159.161 190.97 159.55C190.9 159.74 190.831 159.912 190.762 160.1C190.619 160.494 190.817 160.93 191.186 161.071C191.242 161.092 191.301 161.099 191.344 161.105C191.682 161.15 192.008 160.952 192.128 160.618C192.197 160.428 192.266 160.24 192.335 160.068C192.491 159.676 192.311 159.243 191.927 159.099Z" fill="black"/>
<path d="M190.68 162.401C190.298 162.245 189.87 162.43 189.712 162.819C189.643 163.009 189.576 163.182 189.491 163.367C189.333 163.759 189.516 164.193 189.896 164.349C189.955 164.372 190.011 164.396 190.085 164.405C190.407 164.448 190.729 164.263 190.862 163.947C190.931 163.759 191.013 163.586 191.085 163.398C191.242 162.994 191.062 162.56 190.68 162.401Z" fill="black"/>
<path d="M189.345 165.691C188.98 165.519 188.537 165.704 188.368 166.076C187.894 167.169 187.422 168.246 186.939 169.293C186.771 169.665 186.921 170.11 187.284 170.298C187.353 170.336 187.427 170.346 187.498 170.356C187.808 170.397 188.128 170.227 188.259 169.926C188.759 168.866 189.233 167.773 189.709 166.667C189.893 166.295 189.727 165.847 189.345 165.691Z" fill="black"/>
<path d="M179.921 183.304C179.594 183.064 179.134 183.155 178.896 183.488C178.785 183.639 178.675 183.808 178.564 183.962C178.326 184.293 178.398 184.759 178.726 185C178.819 185.073 178.932 185.119 179.049 185.135C179.313 185.17 179.584 185.054 179.748 184.834C179.859 184.665 179.97 184.511 180.082 184.345C180.32 184.012 180.248 183.545 179.921 183.304Z" fill="black"/>
<path d="M167.761 196.008C167.609 196.14 167.475 196.259 167.323 196.391C167.003 196.653 166.968 197.135 167.227 197.442C167.356 197.596 167.523 197.679 167.699 197.702C167.889 197.728 168.105 197.68 168.274 197.537C168.426 197.405 168.576 197.288 168.728 197.156C169.032 196.892 169.08 196.412 168.824 196.105C168.539 195.778 168.067 195.731 167.761 196.008Z" fill="black"/>
<path d="M175.692 188.931C175.384 188.661 174.917 188.691 174.651 189.021C173.905 189.909 173.117 190.776 172.333 191.615C172.056 191.912 172.068 192.386 172.356 192.682C172.476 192.79 172.613 192.869 172.761 192.888C172.982 192.918 173.229 192.846 173.387 192.667C174.188 191.817 174.98 190.919 175.756 190.019C176.04 189.676 176 189.2 175.692 188.931Z" fill="black"/>
<path d="M177.867 186.162C177.542 185.906 177.087 185.969 176.833 186.301C176.71 186.45 176.599 186.603 176.475 186.755C176.222 187.086 176.279 187.548 176.589 187.802C176.696 187.893 176.824 187.941 176.941 187.957C177.192 187.99 177.459 187.889 177.621 187.682C177.745 187.531 177.857 187.364 177.981 187.213C178.25 186.883 178.193 186.419 177.867 186.162Z" fill="black"/>
<path d="M165.067 198.19C164.152 198.887 163.195 199.567 162.247 200.186C161.904 200.414 161.812 200.872 162.034 201.222C162.16 201.404 162.353 201.522 162.559 201.549C162.719 201.571 162.905 201.535 163.053 201.434C164.018 200.785 164.991 200.095 165.939 199.37C166.271 199.125 166.335 198.648 166.093 198.326C165.851 198.005 165.399 197.929 165.067 198.19Z" fill="black"/>
<path d="M193.985 152.942C193.599 152.815 193.181 153.035 193.054 153.428C192.695 154.549 192.321 155.671 191.953 156.762C191.811 157.153 192.023 157.578 192.407 157.721C192.449 157.74 192.51 157.748 192.553 157.754C192.891 157.799 193.23 157.602 193.351 157.253C193.736 156.148 194.112 155.014 194.473 153.874C194.583 153.495 194.371 153.07 193.985 152.942Z" fill="black"/>
<path d="M200.788 123.058C200.394 122.99 200.012 123.275 199.943 123.676L199.85 124.257C199.784 124.658 200.061 125.045 200.455 125.113C200.468 125.115 200.468 125.115 200.483 125.117C200.879 125.169 201.244 124.897 201.313 124.497C201.339 124.303 201.38 124.112 201.406 123.915C201.459 123.513 201.182 123.126 200.788 123.058Z" fill="black"/>
<path d="M201.33 119.557C200.933 119.504 200.554 119.774 200.483 120.191L200.39 120.769C200.319 121.188 200.6 121.559 201.007 121.629L201.022 121.631C201.419 121.684 201.785 121.396 201.854 120.996L201.947 120.414C202.015 119.998 201.736 119.627 201.33 119.557Z" fill="black"/>
<path d="M199.023 132.935C198.618 132.849 198.238 133.119 198.154 133.518L198.033 134.096C197.949 134.494 198.211 134.894 198.603 134.978C198.616 134.98 198.631 134.982 198.662 134.986C199.043 135.037 199.405 134.78 199.487 134.397L199.608 133.819C199.677 133.419 199.415 133.019 199.023 132.935Z" fill="black"/>
<path d="M200.204 126.553C199.794 126.485 199.415 126.753 199.344 127.169C199.143 128.343 198.927 129.517 198.718 130.643C198.634 131.044 198.893 131.444 199.301 131.527C199.316 131.529 199.331 131.531 199.344 131.533C199.728 131.584 200.092 131.314 200.172 130.928C200.383 129.787 200.599 128.613 200.817 127.441C200.875 127.008 200.611 126.623 200.204 126.553Z" fill="black"/>
<path d="M195.949 146.15C195.561 146.038 195.157 146.273 195.043 146.684C194.987 146.873 194.933 147.063 194.892 147.255C194.78 147.652 195.007 148.061 195.395 148.175C195.426 148.179 195.469 148.185 195.499 148.189C195.85 148.236 196.211 148.008 196.304 147.642C196.358 147.45 196.414 147.26 196.455 147.069C196.583 146.676 196.353 146.264 195.949 146.15Z" fill="black"/>
<path d="M195.003 149.565C194.615 149.453 194.196 149.671 194.083 150.068C194.029 150.258 193.973 150.448 193.921 150.625C193.807 151.019 194.019 151.442 194.408 151.554C194.453 151.56 194.479 151.579 194.525 151.585C194.875 151.632 195.219 151.42 195.327 151.054C195.381 150.864 195.437 150.674 195.491 150.482C195.619 150.089 195.389 149.677 195.003 149.565Z" fill="black"/>
<path d="M198.309 136.397C197.916 136.316 197.51 136.566 197.426 136.965L197.305 137.543C197.221 137.941 197.466 138.352 197.859 138.436C197.874 138.438 197.902 138.442 197.917 138.444C198.298 138.495 198.648 138.236 198.74 137.87L198.861 137.293C198.945 136.894 198.699 136.496 198.309 136.397Z" fill="black"/>
<path d="M197.535 139.854C197.145 139.755 196.739 140.005 196.638 140.417C196.366 141.569 196.079 142.715 195.793 143.849C195.696 144.246 195.923 144.657 196.314 144.754C196.344 144.758 196.375 144.762 196.403 144.766C196.771 144.815 197.116 144.572 197.209 144.203C197.494 143.072 197.784 141.907 198.056 140.759C198.168 140.364 197.925 139.95 197.535 139.854Z" fill="black"/>
<path d="M128.172 211.156C127.029 211.216 125.879 211.231 124.744 211.233C124.342 211.224 123.997 211.559 124 211.985C123.996 212.363 124.281 212.689 124.632 212.736C124.662 212.74 124.69 212.744 124.72 212.748C125.886 212.751 127.068 212.727 128.239 212.67C128.645 212.648 128.961 212.296 128.941 211.881C128.926 211.453 128.578 211.134 128.172 211.156Z" fill="black"/>
<path d="M110.808 210.241C110.711 210.64 110.953 211.051 111.359 211.152C112.504 211.426 113.665 211.672 114.802 211.868C114.817 211.87 114.817 211.87 114.833 211.872C115.229 211.925 115.593 211.656 115.662 211.253C115.729 210.852 115.469 210.452 115.06 210.381C113.95 210.189 112.817 209.962 111.703 209.693C111.298 209.591 110.909 209.829 110.808 210.241Z" fill="black"/>
<path d="M118.733 210.947C118.743 210.751 118.666 210.56 118.534 210.419C118.261 210.125 117.785 210.106 117.492 210.403C117.355 210.538 117.216 210.669 117.062 210.816C116.771 211.098 116.753 211.582 117.027 211.876C117.093 211.945 117.162 211.986 117.232 212.026C117.348 212.163 117.513 212.261 117.704 212.286C117.704 212.286 117.704 212.286 117.719 212.288C117.91 212.314 118.1 212.339 118.308 212.351C118.722 212.39 119.073 212.103 119.128 211.685C119.14 211.366 118.983 211.088 118.733 210.947Z" fill="black"/>
<path d="M108.936 208.943C108.749 208.889 108.578 208.835 108.389 208.778C108.001 208.666 107.584 208.884 107.472 209.281C107.359 209.676 107.572 210.099 107.96 210.214C108.147 210.267 108.333 210.324 108.52 210.377C108.566 210.384 108.592 210.403 108.622 210.407C108.973 210.453 109.331 210.228 109.424 209.875C109.552 209.482 109.324 209.055 108.936 208.943Z" fill="black"/>
<path d="M121.874 211.139C121.682 211.127 121.489 211.117 121.297 211.107C120.896 211.085 120.539 211.4 120.515 211.81C120.492 212.201 120.774 212.543 121.158 212.594C121.171 212.596 121.186 212.598 121.201 212.6C121.394 212.61 121.586 212.62 121.779 212.632C122.179 212.654 122.534 212.336 122.562 211.914C122.6 211.509 122.29 211.163 121.874 211.139Z" fill="black"/>
<path d="M93.9065 202.047C93.7408 201.933 93.5907 201.837 93.4275 201.723C93.0829 201.496 92.6235 201.587 92.4008 201.92C92.1731 202.271 92.2606 202.739 92.59 202.964C92.7532 203.078 92.9164 203.192 93.0843 203.29C93.18 203.348 93.2775 203.392 93.3969 203.408C93.6738 203.445 93.9452 203.329 94.1134 203.075C94.3381 202.727 94.2506 202.258 93.9065 202.047Z" fill="black"/>
<path d="M131.598 210.898C131.401 210.916 131.217 210.939 131.021 210.957C130.613 210.995 130.31 211.365 130.345 211.779C130.373 212.132 130.649 212.413 130.987 212.458C131.045 212.466 131.088 212.472 131.149 212.464C131.345 212.446 131.541 212.427 131.725 212.404C132.134 212.367 132.421 211.995 132.386 211.581C132.37 211.153 132.008 210.845 131.598 210.898Z" fill="black"/>
<path d="M86.462 196.841C86.7525 196.562 86.7704 196.079 86.4971 195.782C86.3656 195.644 86.2366 195.506 86.1207 195.367C85.8465 195.057 85.386 195.04 85.0799 195.32C84.7738 195.6 84.758 196.068 85.0296 196.377C85.159 196.531 85.2876 196.672 85.4344 196.812C85.5527 196.933 85.7074 197.014 85.8674 197.035C86.0711 197.078 86.2906 197.003 86.462 196.841Z" fill="black"/>
<path d="M105.328 209.345C105.666 209.39 106.005 209.191 106.126 208.842C106.269 208.451 106.056 208.029 105.687 207.888C105.503 207.816 105.329 207.764 105.144 207.695C104.76 207.552 104.345 207.754 104.203 208.145C104.062 208.538 104.26 208.959 104.644 209.102C104.829 209.171 105.013 209.243 105.2 209.297C105.226 209.332 105.269 209.338 105.328 209.345Z" fill="black"/>
<path d="M96.8308 203.85C96.6655 203.752 96.5002 203.653 96.3324 203.555C95.9865 203.356 95.523 203.479 95.3262 203.831C95.1138 204.183 95.2445 204.658 95.5932 204.854C95.7585 204.952 95.9263 205.051 96.1068 205.151C96.1891 205.194 96.2742 205.234 96.3631 205.246C96.6552 205.285 96.9431 205.142 97.0978 204.873C97.3122 204.505 97.1792 204.049 96.8308 203.85Z" fill="black"/>
<path d="M141.199 209.21C140.086 209.488 138.95 209.733 137.843 209.967C137.445 210.05 137.183 210.441 137.248 210.844C137.311 211.173 137.562 211.403 137.872 211.444C137.945 211.454 138.034 211.45 138.111 211.432C139.248 211.202 140.402 210.946 141.542 210.672C141.943 210.573 142.178 210.163 142.081 209.769C141.985 209.362 141.587 209.112 141.199 209.21Z" fill="black"/>
<path d="M147.793 207.23C147.606 207.297 147.434 207.366 147.246 207.418C146.857 207.547 146.65 207.977 146.775 208.372C146.871 208.66 147.103 208.843 147.38 208.88C147.484 208.894 147.605 208.879 147.712 208.848C147.902 208.782 148.089 208.715 148.264 208.646C148.654 208.517 148.861 208.087 148.72 207.69C148.607 207.294 148.188 207.086 147.793 207.23Z" fill="black"/>
<path d="M156.792 203.351C156.618 203.435 156.457 203.519 156.281 203.619C155.913 203.796 155.762 204.249 155.938 204.621C156.055 204.85 156.26 204.998 156.496 205.029C156.641 205.049 156.779 205.022 156.921 204.965C157.097 204.881 157.273 204.784 157.45 204.702C157.817 204.522 157.966 204.069 157.778 203.695C157.602 203.322 157.16 203.171 156.792 203.351Z" fill="black"/>
<path d="M84.1505 194.224C84.4698 193.962 84.5317 193.497 84.2901 193.176C84.1759 193.024 84.0617 192.873 83.9475 192.721C83.7105 192.384 83.2406 192.322 82.9234 192.569C82.5935 192.814 82.5295 193.294 82.7685 193.615C82.881 193.779 83.0101 193.936 83.1243 194.088C83.2521 194.254 83.4191 194.34 83.6096 194.365C83.8001 194.39 84.0006 194.341 84.1505 194.224Z" fill="black"/>
<path d="M153.679 204.867C152.632 205.337 151.569 205.802 150.497 206.222C150.118 206.371 149.925 206.815 150.067 207.2C150.167 207.457 150.399 207.638 150.664 207.673C150.78 207.689 150.901 207.676 151.026 207.632C152.115 207.199 153.206 206.735 154.27 206.254C154.636 206.09 154.814 205.643 154.643 205.256C154.486 204.869 154.047 204.687 153.679 204.867Z" fill="black"/>
<path d="M135.015 210.457C134.831 210.493 134.635 210.511 134.452 210.547C134.042 210.6 133.765 210.989 133.815 211.39C133.86 211.732 134.127 211.981 134.449 212.024C134.508 212.031 134.583 212.026 134.644 212.018C134.842 211.984 135.023 211.963 135.222 211.927C135.621 211.859 135.909 211.488 135.846 211.069C135.791 210.681 135.414 210.387 135.015 210.457Z" fill="black"/>
<path d="M159.819 201.702C159.659 201.801 159.495 201.903 159.319 201.985C158.962 202.195 158.842 202.652 159.035 203.011C159.154 203.224 159.361 203.359 159.582 203.389C159.726 203.408 159.895 203.386 160.041 203.297C160.217 203.2 160.38 203.098 160.559 203.001C160.915 202.791 161.035 202.334 160.83 201.973C160.623 201.625 160.174 201.505 159.819 201.702Z" fill="black"/>
<path d="M144.515 208.299C144.33 208.351 144.145 208.402 143.97 208.471C143.583 208.587 143.347 208.995 143.458 209.406C143.537 209.706 143.779 209.906 144.074 209.945C144.175 209.959 144.266 209.955 144.374 209.922C144.562 209.871 144.749 209.807 144.934 209.755C145.324 209.639 145.559 209.213 145.434 208.818C145.323 208.407 144.905 208.186 144.515 208.299Z" fill="black"/>
<path d="M202.03 114.861C201.619 114.806 201.252 115.091 201.183 115.495L200.916 117.266C200.86 117.685 201.139 118.058 201.533 118.126C201.533 118.126 201.533 118.126 201.548 118.128C201.945 118.181 202.311 117.894 202.38 117.493L202.65 115.703C202.703 115.3 202.422 114.929 202.03 114.861Z" fill="black"/>
<path d="M29.324 242.055C29.3003 242.233 29.2591 242.407 29.2031 242.575C29.1467 242.746 29.0735 242.907 28.9829 243.063C28.8952 243.217 28.793 243.364 28.6768 243.498C28.5607 243.632 28.4307 243.754 28.2923 243.862C28.151 243.972 28.0012 244.068 27.8434 244.146C27.6855 244.225 27.5221 244.287 27.3528 244.336C27.1813 244.381 27.0093 244.411 26.8322 244.421C26.6572 244.435 26.4824 244.427 26.3096 244.404C26.1344 244.381 25.9637 244.343 25.7983 244.284C25.6301 244.227 25.4719 244.154 25.3182 244.065C25.1675 243.974 25.0261 243.871 24.8944 243.754C24.7627 243.636 24.6432 243.505 24.5355 243.362C24.4301 243.221 24.3366 243.07 24.2597 242.91C24.1827 242.75 24.1224 242.581 24.078 242.41C24.0315 242.236 24.003 242.061 23.9934 241.881C23.9834 241.704 23.989 241.526 24.0127 241.348C24.0364 241.17 24.0776 240.997 24.134 240.825C24.1901 240.657 24.2636 240.493 24.3538 240.34C24.4418 240.183 24.5438 240.039 24.6599 239.905C24.776 239.771 24.906 239.649 25.0448 239.539C25.1861 239.429 25.3355 239.336 25.4933 239.257C25.6515 239.175 25.8149 239.113 25.9839 239.067C26.1554 239.022 26.3274 238.992 26.5049 238.979C26.6796 238.968 26.8547 238.973 27.03 238.996C27.2027 239.019 27.373 239.061 27.5387 239.117C27.7066 239.176 27.8649 239.25 28.0185 239.338C28.1696 239.427 28.311 239.53 28.4423 239.65C28.5741 239.767 28.6939 239.896 28.8015 240.039C28.9066 240.182 29.0001 240.333 29.0771 240.493C29.154 240.653 29.2146 240.819 29.2587 240.993C29.3056 241.165 29.3337 241.342 29.3437 241.519C29.3533 241.699 29.3477 241.877 29.324 242.055Z" fill="black"/>
<mask id="mask1_24_755" style="mask-type:luminance" maskUnits="userSpaceOnUse" x="19" y="234" width="15" height="15">
<path d="M21.4277 234.63L33.9858 236.303L32.3341 248.704L19.776 247.031L21.4277 234.63Z" fill="white"/>
</mask>
<g mask="url(#mask1_24_755)">
<path d="M27.4875 235.561C24.1549 235.117 21.0887 237.506 20.6369 240.898C20.1851 244.29 22.5193 247.396 25.8519 247.84C29.1819 248.284 32.2479 245.897 32.6997 242.505C33.1514 239.113 30.8023 236.002 27.4875 235.561ZM26.0506 246.348C23.5258 246.012 21.765 243.647 22.105 241.094C22.4475 238.523 24.7788 236.721 27.2884 237.055C29.7955 237.389 31.5719 239.754 31.2315 242.309C30.8894 244.878 28.5577 246.682 26.0506 246.348Z" fill="black"/>
</g>
</g>
<defs>
<clipPath id="clip0_24_755">
<rect width="246" height="250" fill="white" transform="translate(33.5803 0.854736) rotate(7.58685)"/>
</clipPath>
</defs>
</svg>
